<?xml version="1.0" encoding="UTF-8"?>
<svg version="1.1" xmlns="http://www.w3.org/2000/svg" width="390" height="389">
<path d="M0 0 C1.0033287 -0.00807175 2.00665741 -0.01614349 3.04039001 -0.02445984 C5.16598817 -0.03825448 7.29160805 -0.04899716 9.41723633 -0.05688477 C11.54718729 -0.06829723 13.67711218 -0.08857391 15.80688477 -0.1184082 C58.60718678 -0.71624309 98.48783915 13.63451074 132.58984375 39.23828125 C133.52828125 39.93050781 134.46671875 40.62273438 135.43359375 41.3359375 C176.20805746 72.98648572 200.94511067 120.2832049 208.11108398 170.92163086 C208.64224242 175.23734343 208.7674467 179.50288575 208.79296875 183.84765625 C208.79998306 184.64820435 208.80699738 185.44875244 208.81422424 186.27355957 C208.831646 188.84519121 208.83807707 191.41659275 208.83984375 193.98828125 C208.84051849 194.86577026 208.84119324 195.74325928 208.84188843 196.64733887 C208.8262756 209.40433599 208.4930356 221.76163724 205.58984375 234.23828125 C205.4182373 235.00865723 205.24663086 235.7790332 205.06982422 236.57275391 C200.94031287 254.74038965 194.40376382 271.84740692 185.58984375 288.23828125 C185.12457275 289.12459229 185.12457275 289.12459229 184.64990234 290.02880859 C177.11104031 304.3370983 167.30346606 317.10523186 156.06884766 328.70800781 C155.041121 329.77136051 154.02044052 330.84155037 153.00537109 331.91699219 C124.43918882 362.16155364 85.53651612 381.52578795 44.58984375 388.23828125 C43.56713379 388.41262695 42.54442383 388.58697266 41.49072266 388.76660156 C36.70466563 389.34531368 31.99642992 389.43890262 27.1796875 389.4765625 C26.1763588 389.48463425 25.17303009 389.49270599 24.13929749 389.50102234 C22.01369933 389.51481698 19.88807945 389.52555966 17.76245117 389.53344727 C15.63250021 389.54485973 13.50257532 389.56513641 11.37280273 389.5949707 C-31.42749928 390.19280559 -71.30815165 375.84205176 -105.41015625 350.23828125 C-106.34859375 349.54605469 -107.28703125 348.85382813 -108.25390625 348.140625 C-149.02836996 316.49007678 -173.76542317 269.1933576 -180.93139648 218.55493164 C-181.46255492 214.23921907 -181.5877592 209.97367675 -181.61328125 205.62890625 C-181.62029556 204.82835815 -181.62730988 204.02781006 -181.63453674 203.20300293 C-181.6519585 200.63137129 -181.65838957 198.05996975 -181.66015625 195.48828125 C-181.66083099 194.61079224 -181.66150574 193.73330322 -181.66220093 192.82922363 C-181.6465881 180.07222651 -181.3133481 167.71492526 -178.41015625 155.23828125 C-178.2385498 154.46790527 -178.06694336 153.6975293 -177.89013672 152.90380859 C-173.76062537 134.73617285 -167.22407632 117.62915558 -158.41015625 101.23828125 C-158.09997559 100.64740723 -157.78979492 100.0565332 -157.47021484 99.44775391 C-149.93135281 85.1394642 -140.12377856 72.37133064 -128.88916016 60.76855469 C-127.8614335 59.70520199 -126.84075302 58.63501213 -125.82568359 57.55957031 C-97.25950132 27.31500886 -58.35682862 7.95077455 -17.41015625 1.23828125 C-15.87609131 0.9767627 -15.87609131 0.9767627 -14.31103516 0.70996094 C-9.52497813 0.13124882 -4.81674242 0.03765988 0 0 Z " fill="#00003F" transform="translate(181.41015625,-0.23828125)"/>
<path d="M0 0 C51.48 0 102.96 0 156 0 C156 22.77529708 155.53621243 44.00274075 139 61 C120.74763602 76.92505682 102.35747583 78.46035383 79.19921875 78.29296875 C76.90851623 78.28736395 74.61781008 78.28309803 72.32710266 78.28010559 C66.33812288 78.26872646 60.34936613 78.23931976 54.36047363 78.20599365 C47.15328835 78.16970502 39.94602792 78.15609859 32.73877716 78.13863373 C21.82569697 78.10967774 10.91310484 78.05214189 0 78 C0 52.26 0 26.52 0 0 Z " fill="#C8D9F9" transform="translate(157,81)"/>
<path d="M0 0 C25.74 0 51.48 0 78 0 C78 43.45033113 78 43.45033113 62.265625 59.7578125 C61.14414062 60.86769531 61.14414062 60.86769531 60 62 C59.39671875 62.63679688 58.7934375 63.27359375 58.171875 63.9296875 C47.54991077 74.32073946 32.76396611 78.25088654 18.34375 78.17578125 C17.0753125 78.15902344 15.806875 78.14226562 14.5 78.125 C13.200625 78.11597656 11.90125 78.10695313 10.5625 78.09765625 C7.37480701 78.07421733 4.1875018 78.0414044 1 78 C1.01571045 79.20946289 1.0314209 80.41892578 1.04760742 81.66503906 C1.10241195 86.20500885 1.13653169 90.74495014 1.16479492 95.28515625 C1.1797675 97.2402846 1.20015281 99.19538003 1.22631836 101.15039062 C1.43330961 117.02783726 1.38384036 131.95581532 -10.109375 144.2578125 C-19.30824663 152.85399943 -29.02525967 156.56498321 -41.6640625 156.3046875 C-52.45521059 155.31907913 -61.96888364 149.61869199 -69.140625 141.609375 C-76.4851083 131.79615782 -77.9758949 122.08715539 -77 110 C-75.58186001 100.28157004 -69.81392271 91.78351745 -62.25 85.625 C-60.8471502 84.72801512 -59.42824102 83.85597724 -58 83 C-56.90848633 82.33713989 -56.90848633 82.33713989 -55.79492188 81.66088867 C-45.17958486 76.281794 -33.8511161 77.45712496 -22.25 77.6875 C-14.9075 77.790625 -7.565 77.89375 0 78 C0 52.26 0 26.52 0 0 Z " fill="#BBCFF5" transform="translate(175,177)"/>
<path d="M0 0 C25.41 0 50.82 0 77 0 C77 42.45033113 77 42.45033113 61.265625 58.7578125 C60.51796875 59.49773437 59.7703125 60.23765625 59 61 C58.39671875 61.63679688 57.7934375 62.27359375 57.171875 62.9296875 C41.68282951 78.08201461 20.43679756 77 0 77 C0 51.59 0 26.18 0 0 Z " fill="#C3D6F8" transform="translate(176,178)"/>
<path d="M0 0 C0.94074875 0.00007553 1.8814975 0.00015106 2.85075378 0.00022888 C3.86333755 0.00539017 4.87592133 0.01055145 5.91918945 0.01586914 C6.95815872 0.01728409 7.99712799 0.01869904 9.06758118 0.02015686 C12.38924018 0.02575884 15.71083203 0.03831167 19.0324707 0.05102539 C21.28312077 0.05604014 23.5337719 0.06060309 25.78442383 0.06469727 C31.30462907 0.0757289 36.82479509 0.09246896 42.3449707 0.11352539 C42.41958559 6.33908521 42.47379161 12.56437995 42.50976562 18.7902832 C42.52477557 20.90458719 42.5451899 23.01886046 42.57128906 25.13305664 C42.60801704 28.1865196 42.62477544 31.23956797 42.63793945 34.29321289 C42.65342331 35.2259201 42.66890717 36.15862732 42.68486023 37.11959839 C42.68767816 48.31428383 39.391882 57.56192296 31.8449707 65.86352539 C31.0199707 66.60602539 30.1949707 67.34852539 29.3449707 68.11352539 C28.6024707 68.79415039 27.8599707 69.47477539 27.0949707 70.17602539 C16.68141004 77.51285222 5.68034272 78.0922628 -6.6550293 77.11352539 C-10.1731195 76.33692569 -12.70757781 75.15685066 -15.6550293 73.11352539 C-16.41944336 72.6043457 -17.18385742 72.09516602 -17.97143555 71.57055664 C-23.22874007 67.78564383 -27.30091969 63.65953034 -30.6550293 58.11352539 C-31.06881836 57.43290039 -31.48260742 56.75227539 -31.90893555 56.05102539 C-36.244304 47.35007687 -36.2576269 35.42579757 -33.8894043 26.09790039 C-32.96527461 23.94159778 -31.94711236 22.06729805 -30.6550293 20.11352539 C-30.0569043 19.08227539 -29.4587793 18.05102539 -28.8425293 16.98852539 C-21.94358912 7.92134688 -11.92969954 -0.03198311 0 0 Z " fill="#BFD3F8" transform="translate(114.655029296875,158.886474609375)"/>
<path d="M0 0 C51.48 0 102.96 0 156 0 C156 7.92 156 15.84 156 24 C155.67 24 155.34 24 155 24 C155 16.41 155 8.82 155 1 C104.18 1 53.36 1 1 1 C1.33 9.58 1.66 18.16 2 27 C2.33974857 46.06996165 2.33974857 46.06996165 2.40136719 52.83032227 C2.42875501 55.62553308 2.47443105 58.41993993 2.5234375 61.21484375 C2.52669037 62.05836899 2.52994324 62.90189423 2.53329468 63.77098083 C2.43830296 68.03149822 2.43830296 68.03149822 4.46353149 71.55470276 C4.9705661 72.03165085 5.47760071 72.50859894 6 73 C6.33 73.99 6.66 74.98 7 76 C38.68 76.33 70.36 76.66 103 77 C103 77.33 103 77.66 103 78 C69.01 78 35.02 78 0 78 C0 52.26 0 26.52 0 0 Z " fill="#97A2DC" transform="translate(157,81)"/>
<path d="M0 0 C0.99 0.66 1.98 1.32 3 2 C2.649375 3.093125 2.29875 4.18625 1.9375 5.3125 C0.66960546 8.90920373 0.66960546 8.90920373 2 12 C1.34 12 0.68 12 0 12 C0 12.66 0 13.32 0 14 C0.66 14 1.32 14 2 14 C2 14.99 2 15.98 2 17 C-0.97 16.67 -3.94 16.34 -7 16 C-7.33 16.66 -7.66 17.32 -8 18 C-8.99 19.485 -8.99 19.485 -10 21 C-9.34 21 -8.68 21 -8 21 C-7.67 22.32 -7.34 23.64 -7 25 C-7.99 24.34 -8.98 23.68 -10 23 C-15.56326809 23.12362818 -18.17081241 25.25986328 -22 29 C-22.495 30.485 -22.495 30.485 -23 32 C-24.85546875 32.22786458 -26.7109375 32.45572917 -28.56640625 32.68359375 C-30.37578151 32.91884158 -32.17893003 33.20302335 -33.97706604 33.51268005 C-38.90776747 34.21370986 -43.82948472 34.13150443 -48.80053711 34.11352539 C-50.39677917 34.11374443 -50.39677917 34.11374443 -52.02526855 34.1139679 C-55.52598137 34.11327388 -59.02664029 34.10550545 -62.52734375 34.09765625 C-64.96114574 34.09579025 -67.39494811 34.09436721 -69.82875061 34.09336853 C-76.22214807 34.08955766 -82.61552268 34.07973959 -89.00891113 34.06866455 C-95.53783865 34.05841967 -102.06676988 34.05386432 -108.59570312 34.04882812 C-121.39714515 34.03811603 -134.19857136 34.02125009 -147 34 C-147 33.67 -147 33.34 -147 33 C-145.77019409 32.99635437 -144.54038818 32.99270874 -143.27331543 32.98895264 C-131.62295746 32.95183987 -119.97285983 32.89389096 -108.3227005 32.81609726 C-102.33475223 32.77676748 -96.34694784 32.74450824 -90.35888672 32.72900391 C-84.56853956 32.71374141 -78.77858834 32.67912748 -72.98841858 32.63169098 C-70.79113731 32.61697549 -68.59379949 32.60896471 -66.39646912 32.60811615 C-45.52356004 32.59196475 -28.14095012 30.42382777 -12 16 C-11.34 16 -10.68 16 -10 16 C-9.74347656 15.44570312 -9.48695313 14.89140625 -9.22265625 14.3203125 C-7.82449029 11.66692407 -6.18147518 9.31438073 -4.4375 6.875 C-2.03268334 3.54908252 -2.03268334 3.54908252 0 0 Z " fill="#0C0F66" transform="translate(306,126)"/>
<path d="M0 0 C3.5 0.3125 3.5 0.3125 7 1 C7.33 1.66 7.66 2.32 8 3 C7.67 3.99 7.34 4.98 7 6 C6.86445597 7.53203185 6.77600683 9.06851871 6.71875 10.60546875 C6.68136719 11.50716797 6.64398438 12.40886719 6.60546875 13.33789062 C6.57066406 14.27826172 6.53585937 15.21863281 6.5 16.1875 C5.85428496 33.27503315 5.85428496 33.27503315 3.4375 40 C3.16808594 40.763125 2.89867187 41.52625 2.62109375 42.3125 C2.41613281 42.869375 2.21117187 43.42625 2 44 C1.34 44 0.68 44 0 44 C0 44.99 0 45.98 0 47 C-0.66 46.67 -1.32 46.34 -2 46 C-1.58427734 44.69675781 -1.58427734 44.69675781 -1.16015625 43.3671875 C-0.79792969 42.21476562 -0.43570313 41.06234375 -0.0625 39.875 C0.47697266 38.16957031 0.47697266 38.16957031 1.02734375 36.4296875 C4.19136869 25.27300519 3.49637934 15.08689589 4 3 C-37.91 3 -79.82 3 -123 3 C-123 2.67 -123 2.34 -123 2 C-115.84082001 1.13723926 -108.80611056 0.86547123 -101.59936523 0.90234375 C-100.50711136 0.90380402 -99.41485748 0.90526428 -98.289505 0.9067688 C-95.93677245 0.91055209 -93.58404267 0.91664431 -91.23132133 0.92483521 C-87.51269331 0.93765828 -83.79410116 0.94412863 -80.07545471 0.94897461 C-72.19612078 0.96036245 -64.3168149 0.97960176 -56.4375 1 C-47.27496307 1.02365242 -38.11243848 1.04394418 -28.94987679 1.05593872 C-25.27755135 1.06244427 -21.60527664 1.07494603 -17.93296814 1.08764648 C-15.70067388 1.09127601 -13.46837914 1.09462811 -11.23608398 1.09765625 C-10.20810699 1.10282257 -9.18013 1.10798889 -8.1210022 1.11331177 C-7.19169388 1.11338226 -6.26238556 1.11345276 -5.30491638 1.11352539 C-4.08689158 1.11685631 -4.08689158 1.11685631 -2.84426022 1.12025452 C-0.98260692 1.20247337 -0.98260692 1.20247337 0 0 Z " fill="#02025E" transform="translate(309,78)"/>
<path d="M0 0 C2 3 2 3 2 5 C3.65 5 5.3 5 7 5 C7.33 5.99 7.66 6.98 8 8 C7.67 8.66 7.34 9.32 7 10 C7.66 10.33 8.32 10.66 9 11 C9.99 11.66 10.98 12.32 12 13 C13.65549531 13.38499891 15.3222433 13.72793135 17 14 C17 15.65 17 17.3 17 19 C18.96466413 20.06775224 20.96855359 21.06553465 23 22 C23.66 21.67 24.32 21.34 25 21 C25 21.66 25 22.32 25 23 C26.98 23.33 28.96 23.66 31 24 C31 23.34 31 22.68 31 22 C34.67735605 20.77421465 35.55066523 21.53403272 39 23 C39.99 23 40.98 23 42 23 C42 23.66 42 24.32 42 25 C42.66 25.33 43.32 25.66 44 26 C22.88534122 26.77327336 22.88534122 26.77327336 16 22 C15.23558594 21.49082031 14.47117187 20.98164063 13.68359375 20.45703125 C6.67887923 15.41409839 1.13757791 9.55031165 -1 1 C-0.67 0.67 -0.34 0.34 0 0 Z " fill="#94B1EB" transform="translate(83,210)"/>
<path d="M0 0 C0.33 0 0.66 0 1 0 C1.01458252 1.28688721 1.02916504 2.57377441 1.04418945 3.8996582 C1.10211148 8.6689855 1.17934463 13.43783762 1.26245117 18.20678711 C1.29572924 20.2718129 1.32375214 22.33693027 1.34643555 24.40209961 C1.37992855 27.36872432 1.43224145 30.33450748 1.48828125 33.30078125 C1.49467117 34.2258699 1.5010611 35.15095856 1.50764465 36.1040802 C1.52743881 36.96474594 1.54723297 37.82541168 1.56762695 38.7121582 C1.58428154 39.84800102 1.58428154 39.84800102 1.60127258 41.00679016 C2.10323627 43.51607074 3.15208711 44.29165064 5 46 C5.33 46.99 5.66 47.98 6 49 C37.68 49.33 69.36 49.66 102 50 C102 50.33 102 50.66 102 51 C68.34 51 34.68 51 0 51 C0 34.17 0 17.34 0 0 Z " fill="#9CAEE9" transform="translate(158,108)"/>
<path d="M0 0 C0.33 0 0.66 0 1 0 C1.33 9.9 1.66 19.8 2 30 C7.61 30.33 13.22 30.66 19 31 C19.33 29.35 19.66 27.7 20 26 C20.66 26.66 21.32 27.32 22 28 C21.67 28.66 21.34 29.32 21 30 C22.98 30 24.96 30 27 30 C27 28.35 27 26.7 27 25 C35.54092527 23.71886121 35.54092527 23.71886121 39 25 C39.99 25.33 40.98 25.66 42 26 C35.55004469 32.44995531 25.27868581 32.21517334 16.77392578 32.28564453 C11.18201926 32.23686819 5.59103395 32.11016816 0 32 C0 21.44 0 10.88 0 0 Z " fill="#94AFEA" transform="translate(177,223)"/>
<path d="M0 0 C1.90833268 3.15664052 2.19799736 4.91320554 1.375 8.5 C1.21773437 9.2528125 1.06046875 10.005625 0.8984375 10.78125 C0 13 0 13 -2.0703125 14.796875 C-4.80446864 17.91846217 -4.44327379 20.81762174 -4.25 24.75 C-4.23195313 25.44738281 -4.21390625 26.14476562 -4.1953125 26.86328125 C-4.14838554 28.57611539 -4.07664605 30.28823824 -4 32 C-3.34 32 -2.68 32 -2 32 C-2.33 34.64 -2.66 37.28 -3 40 C-7.9642845 30.7806145 -8.54112744 20.56636125 -5.75 10.5 C-4.37528774 6.5139922 -2.55227107 3.34435519 0 0 Z " fill="#9AB5ED" transform="translate(105,271)"/>
<path d="M0 0 C2.0625 0.4375 2.0625 0.4375 4 1 C3.91015625 2.7734375 3.91015625 2.7734375 3 5 C0.80068019 6.41448791 -1.21152779 7.53226064 -3.5625 8.625 C-4.20437256 8.93058838 -4.84624512 9.23617676 -5.50756836 9.55102539 C-14.50868001 13.74015756 -22.11029801 14.27136377 -32 14 C-32 13.67 -32 13.34 -32 13 C-31.37351563 12.95101562 -30.74703125 12.90203125 -30.1015625 12.8515625 C-29.28429687 12.77679688 -28.46703125 12.70203125 -27.625 12.625 C-26.81289063 12.55539063 -26.00078125 12.48578125 -25.1640625 12.4140625 C-22.79665809 12.17107412 -22.79665809 12.17107412 -21 10 C-18.375 9.875 -18.375 9.875 -16 10 C-15.67 9.01 -15.34 8.02 -15 7 C-13.02 7 -11.04 7 -9 7 C-9 7.66 -9 8.32 -9 9 C-8.34 9 -7.68 9 -7 9 C-7 8.34 -7 7.68 -7 7 C-6.38125 6.7525 -5.7625 6.505 -5.125 6.25 C-2.62985717 4.78226892 -2.09872287 3.62003145 -1 1 C-0.67 0.67 -0.34 0.34 0 0 Z " fill="#D8E2F9" transform="translate(284,144)"/>
<path d="M0 0 C3.5 0.3125 3.5 0.3125 7 1 C7.33 1.66 7.66 2.32 8 3 C7.67 3.99 7.34 4.98 7 6 C6.86445597 7.53203185 6.77600683 9.06851871 6.71875 10.60546875 C6.68136719 11.50716797 6.64398438 12.40886719 6.60546875 13.33789062 C6.57066406 14.27826172 6.53585937 15.21863281 6.5 16.1875 C5.85428496 33.27503315 5.85428496 33.27503315 3.4375 40 C3.16808594 40.763125 2.89867187 41.52625 2.62109375 42.3125 C2.41613281 42.869375 2.21117187 43.42625 2 44 C1.34 44 0.68 44 0 44 C0 44.99 0 45.98 0 47 C-0.66 46.67 -1.32 46.34 -2 46 C-1.72285156 45.13117188 -1.44570313 44.26234375 -1.16015625 43.3671875 C-0.79792969 42.21476562 -0.43570312 41.06234375 -0.0625 39.875 C0.29714844 38.73804688 0.65679687 37.60109375 1.02734375 36.4296875 C2.4824707 31.29875795 3.12630552 26.49282679 3.09765625 21.1640625 C3.09443359 20.10058594 3.09121094 19.03710938 3.08789062 17.94140625 C3.07951172 16.84699219 3.07113281 15.75257812 3.0625 14.625 C3.05798828 13.50738281 3.05347656 12.38976562 3.04882812 11.23828125 C3.03709244 8.49213196 3.02067363 5.74609414 3 3 C1.68 2.34 0.36 1.68 -1 1 C-0.67 0.67 -0.34 0.34 0 0 Z " fill="#0D0C7A" transform="translate(309,78)"/>
<path d="M0 0 C1.2065625 0.0309375 1.2065625 0.0309375 2.4375 0.0625 C3.1328125 1.6953125 3.1328125 1.6953125 3.4375 4.0625 C0.47669678 10.66453948 -3.68019757 16.73635189 -8.5625 22.0625 C-9.5525 21.7325 -10.5425 21.4025 -11.5625 21.0625 C-11.5625 19.4125 -11.5625 17.7625 -11.5625 16.0625 C-10.985 16.000625 -10.4075 15.93875 -9.8125 15.875 C-6.43010812 14.65358071 -5.3699687 13.16101777 -3.5625 10.0625 C-3.33677967 7.64934445 -3.37141047 5.37109671 -3.51953125 2.953125 C-3.53371094 2.32921875 -3.54789062 1.7053125 -3.5625 1.0625 C-2.5625 0.0625 -2.5625 0.0625 0 0 Z " fill="#E2E8F9" transform="translate(304.5625,119.9375)"/>
<path d="M0 0 C16.5 0 33 0 50 0 C50 0.66 50 1.32 50 2 C50.99 2.33 51.98 2.66 53 3 C51.35 3.66 49.7 4.32 48 5 C48 4.01 48 3.02 48 2 C47.26394531 2.0721875 46.52789062 2.144375 45.76953125 2.21875 C44.79371094 2.3115625 43.81789062 2.404375 42.8125 2.5 C41.84957031 2.5928125 40.88664062 2.685625 39.89453125 2.78125 C37.24812333 2.98124844 34.65239135 3.03879183 32 3 C32 2.34 32 1.68 32 1 C30.02 1.66 28.04 2.32 26 3 C26 2.34 26 1.68 26 1 C17.42 1 8.84 1 0 1 C0 0.67 0 0.34 0 0 Z " fill="#F1F8FB" transform="translate(196,178)"/>
<path d="M0 0 C-2.72952469 2.09820606 -5.52468486 3.98000105 -8.4375 5.8125 C-12.45352094 8.45671181 -15.15392214 11.14402354 -18 15 C-21.875 12.375 -21.875 12.375 -23 9 C-22.67 8.34 -22.34 7.68 -22 7 C-19.36 7 -16.72 7 -14 7 C-14 6.34 -14 5.68 -14 5 C-12.68 4.67 -11.36 4.34 -10 4 C-10 3.34 -10 2.68 -10 2 C-6.5980513 -0.09350689 -3.94727588 -0.17942163 0 0 Z " fill="#050828" transform="translate(123,257)"/>
<path d="M0 0 C2.58110217 3.87165325 1.72948337 5.54204609 1 10 C1.33 10.66 1.66 11.32 2 12 C2 14.90051348 1.84625327 17.73344867 1.625 20.625 C1.55539063 21.60726562 1.48578125 22.58953125 1.4140625 23.6015625 C1.20910156 24.78878906 1.20910156 24.78878906 1 26 C0.34 26.33 -0.32 26.66 -1 27 C-2.38134541 22.85596378 -2.18424179 18.96493462 -2.1875 14.625 C-2.19974609 13.77421875 -2.21199219 12.9234375 -2.22460938 12.046875 C-2.23503708 7.58381888 -2.11069352 4.05453379 0 0 Z " fill="#96B3EB" transform="translate(82,183)"/>
<path d="M0 0 C0.33 0 0.66 0 1 0 C1.01458252 1.28688721 1.02916504 2.57377441 1.04418945 3.8996582 C1.10211148 8.6689855 1.17934463 13.43783762 1.26245117 18.20678711 C1.29572924 20.2718129 1.32375214 22.33693027 1.34643555 24.40209961 C1.37992855 27.36872432 1.43224145 30.33450748 1.48828125 33.30078125 C1.49467117 34.2258699 1.5010611 35.15095856 1.50764465 36.1040802 C1.52743881 36.96474594 1.54723297 37.82541168 1.56762695 38.7121582 C1.58428154 39.84800102 1.58428154 39.84800102 1.60127258 41.00679016 C2.10185586 43.50917014 3.13832438 44.3191158 5 46 C5.6875 48.1875 5.6875 48.1875 6 50 C4.02 50 2.04 50 0 50 C0 33.5 0 17 0 0 Z " fill="#9DB9F9" transform="translate(158,108)"/>
<path d="M0 0 C0.33 0 0.66 0 1 0 C0.72962375 7.35423405 -0.26918654 12.62151248 -4 19 C-4.66 18.67 -5.32 18.34 -6 18 C-5.67 16.35 -5.34 14.7 -5 13 C-5.66 12.67 -6.32 12.34 -7 12 C-5.63919813 6.80421104 -3.58789752 3.86388964 0 0 Z " fill="#E4ECFA" transform="translate(251,204)"/>
<path d="M0 0 C0.99 0.66 1.98 1.32 3 2 C2.649375 3.093125 2.29875 4.18625 1.9375 5.3125 C0.66960546 8.90920373 0.66960546 8.90920373 2 12 C1.34 12 0.68 12 0 12 C0 12.66 0 13.32 0 14 C0.66 14 1.32 14 2 14 C2 14.99 2 15.98 2 17 C-3.75 17.125 -3.75 17.125 -6 16 C-6 14.68 -6 13.36 -6 12 C-5.01 11.67 -4.02 11.34 -3 11 C-2.26676204 8.98491642 -2.26676204 8.98491642 -2 7 C-1.34 7 -0.68 7 0 7 C-0.2784375 5.824375 -0.2784375 5.824375 -0.5625 4.625 C-1 2 -1 2 0 0 Z " fill="#030280" transform="translate(306,126)"/>
<path d="M0 0 C1.91977386 3.1730602 2.20625453 5.00519521 1.4375 8.625 C0.84765625 11.00390625 0.84765625 11.00390625 0 13 C-2.625 14.5625 -2.625 14.5625 -5 15 C-5.67081836 8.56014376 -3.75430238 5.16216577 0 0 Z " fill="#9EB5E8" transform="translate(105,271)"/>
<path d="M0 0 C0.99386719 0.02707031 1.98773438 0.05414063 3.01171875 0.08203125 C4.15060547 0.13423828 4.15060547 0.13423828 5.3125 0.1875 C4.3225 2.1675 3.3325 4.1475 2.3125 6.1875 C0.85426788 6.2145043 -0.60410675 6.23389787 -2.0625 6.25 C-2.87460938 6.26160156 -3.68671875 6.27320313 -4.5234375 6.28515625 C-6.6875 6.1875 -6.6875 6.1875 -8.6875 5.1875 C-8.6875 3.1875 -8.6875 3.1875 -7.54296875 1.57421875 C-4.966219 -0.35156265 -3.17653179 -0.11211289 0 0 Z " fill="#DBE6FA" transform="translate(134.6875,255.8125)"/>
<path d="M0 0 C4.77576339 0.4682121 8.04476345 1.24331998 12 4 C12.33 3.34 12.66 2.68 13 2 C13.99 1.67 14.98 1.34 16 1 C16 2.65 16 4.3 16 6 C19.63 6 23.26 6 27 6 C27 6.33 27 6.66 27 7 C18.30841328 7.4974517 10.83999488 7.08389977 3 3 C1.1953125 1.36328125 1.1953125 1.36328125 0 0 Z " fill="#839BCF" transform="translate(116,326)"/>
<path d="M0 0 C1.32 0.66 2.64 1.32 4 2 C3.34 2.66 2.68 3.32 2 4 C2.32198966 7.09926819 2.32198966 7.09926819 3 10 C-0.18880951 11.59440475 -2.70897992 10.90786761 -6 10 C-4.6302836 6.00499382 -2.74277578 3.19990508 0 0 Z " fill="#B5C6F0" transform="translate(89,172)"/>
<path d="M0 0 C0.99 0.33 1.98 0.66 3 1 C2.83734146 1.57679504 2.67468292 2.15359009 2.50709534 2.74786377 C2.0145511 4.93537497 1.8792153 6.79831319 1.88647461 9.03417969 C1.88655014 9.81468689 1.88662567 10.59519409 1.88670349 11.39935303 C1.89186478 12.23178528 1.89702606 13.06421753 1.90234375 13.921875 C1.9037587 14.78186096 1.90517365 15.64184692 1.90663147 16.52789307 C1.91221903 19.26863109 1.92476925 22.00928676 1.9375 24.75 C1.94251661 26.6106759 1.94707923 28.47135309 1.95117188 30.33203125 C1.96218439 34.88805246 1.97944049 39.44401228 2 44 C1.34 44 0.68 44 0 44 C0 29.48 0 14.96 0 0 Z " fill="#010220" transform="translate(176,255)"/>
<path d="M0 0 C1.010625 0.350625 2.02125 0.70125 3.0625 1.0625 C4.0525 1.0625 5.0425 1.0625 6.0625 1.0625 C6.0625 1.7225 6.0625 2.3825 6.0625 3.0625 C6.7225 3.3925 7.3825 3.7225 8.0625 4.0625 C1.7925 4.0625 -4.4775 4.0625 -10.9375 4.0625 C-10.9375 3.4025 -10.9375 2.7425 -10.9375 2.0625 C-7.1875 0.9375 -7.1875 0.9375 -4.9375 2.0625 C-4.9375 1.4025 -4.9375 0.7425 -4.9375 0.0625 C-2.9375 -0.9375 -2.9375 -0.9375 0 0 Z " fill="#97B4F0" transform="translate(118.9375,231.9375)"/>
<path d="M0 0 C1.32 0.33 2.64 0.66 4 1 C2.25554724 5.53557717 0.98396836 7.2333553 -3 10 C-4.64797236 10.71162443 -6.31165408 11.39031953 -8 12 C-7.41463247 8.33939179 -5.916761 6.45464836 -3.4375 3.75 C-2.79683594 3.04359375 -2.15617188 2.3371875 -1.49609375 1.609375 C-0.75552734 0.81273437 -0.75552734 0.81273437 0 0 Z " fill="#0B0E2C" transform="translate(168,316)"/>
<path d="M0 0 C0.33 0 0.66 0 1 0 C1.19304243 4.32285335 1.37163516 8.64599481 1.53710938 12.9699707 C1.5953547 14.43953274 1.65748237 15.90894641 1.72363281 17.37817383 C1.81827036 19.49533052 1.89873495 21.61263548 1.9765625 23.73046875 C2.02893066 25.00301514 2.08129883 26.27556152 2.13525391 27.58666992 C2.00366476 30.90751452 1.4490311 33.04011907 0 36 C-0.66 36 -1.32 36 -2 36 C-1.84152588 35.15743652 -1.68305176 34.31487305 -1.51977539 33.44677734 C-0.98284099 29.88621379 -0.79123921 26.44999656 -0.68359375 22.8515625 C-0.66281265 22.19417084 -0.64203156 21.53677917 -0.62062073 20.85946655 C-0.55579247 18.78140638 -0.49655436 16.70323144 -0.4375 14.625 C-0.39425112 13.20701989 -0.35063491 11.78905093 -0.30664062 10.37109375 C-0.20018082 6.9141812 -0.09873016 3.45714294 0 0 Z " fill="#2E2E63" transform="translate(253,177)"/>
<path d="M0 0 C0.99 0.99 1.98 1.98 3 3 C2.67 3.99 2.34 4.98 2 6 C0.67203709 6.35412344 -0.66216607 6.68521554 -2 7 C-3.54166642 8.37485532 -3.54166642 8.37485532 -5 10 C-6.31963709 11.01800576 -7.65009646 12.02248365 -9 13 C-9 12.34 -9 11.68 -9 11 C-9.66 10.67 -10.32 10.34 -11 10 C-10.45730469 9.52949219 -9.91460937 9.05898437 -9.35546875 8.57421875 C-8.64003906 7.95160156 -7.92460937 7.32898438 -7.1875 6.6875 C-6.47980469 6.07261719 -5.77210938 5.45773438 -5.04296875 4.82421875 C-3.29863261 3.26665665 -1.63221959 1.67341125 0 0 Z " fill="#0A0D4A" transform="translate(240,233)"/>
<path d="M0 0 C0 0.66 0 1.32 0 2 C0.66 2 1.32 2 2 2 C2.33 3.32 2.66 4.64 3 6 C1.02 6.99 1.02 6.99 -1 8 C-1 11.3 -1 14.6 -1 18 C-1.66 18.33 -2.32 18.66 -3 19 C-3.33 13.06 -3.66 7.12 -4 1 C-2 0 -2 0 0 0 Z " fill="#03025F" transform="translate(258,175)"/>
<path d="M0 0 C1.2065625 0.0309375 1.2065625 0.0309375 2.4375 0.0625 C3.36815133 2.66832371 3.58667407 3.70448224 2.5 6.3125 C1.9740625 7.17875 1.9740625 7.17875 1.4375 8.0625 C0.4475 8.0625 -0.5425 8.0625 -1.5625 8.0625 C-1.8925 8.7225 -2.2225 9.3825 -2.5625 10.0625 C-2.75662181 8.58418779 -2.94262131 7.10480684 -3.125 5.625 C-3.22941406 4.80128906 -3.33382813 3.97757812 -3.44140625 3.12890625 C-3.48136719 2.44699219 -3.52132813 1.76507813 -3.5625 1.0625 C-2.5625 0.0625 -2.5625 0.0625 0 0 Z " fill="#EDF1FB" transform="translate(304.5625,119.9375)"/>
<path d="M0 0 C-0.33 0.66 -0.66 1.32 -1 2 C-4.92773752 3.14170067 -8.74578979 3.10357788 -12.8125 3.0625 C-13.97394531 3.05347656 -15.13539063 3.04445313 -16.33203125 3.03515625 C-17.21246094 3.02355469 -18.09289062 3.01195312 -19 3 C-19 2.34 -19 1.68 -19 1 C-16.39674384 0.63752129 -13.79279598 0.28472345 -11.1875 -0.0625 C-10.44951172 -0.16626953 -9.71152344 -0.27003906 -8.95117188 -0.37695312 C-5.56825221 -0.82086566 -3.27944975 -1.09314992 0 0 Z " fill="#9DB6EA" transform="translate(151,329)"/>
<path d="M0 0 C1.07314453 0.00322266 2.14628906 0.00644531 3.25195312 0.00976562 C4.37150391 0.01814453 5.49105469 0.02652344 6.64453125 0.03515625 C8.34125977 0.04192383 8.34125977 0.04192383 10.07226562 0.04882812 C12.86724052 0.06062127 15.66210945 0.07707975 18.45703125 0.09765625 C18.45703125 0.42765625 18.45703125 0.75765625 18.45703125 1.09765625 C17.8522998 1.11747559 17.24756836 1.13729492 16.62451172 1.15771484 C13.85994616 1.25351924 11.09607951 1.3629718 8.33203125 1.47265625 C7.38070312 1.50359375 6.429375 1.53453125 5.44921875 1.56640625 C0.38921535 1.77723973 -3.75908829 2.30915383 -8.54296875 4.09765625 C-9.86296875 4.09765625 -11.18296875 4.09765625 -12.54296875 4.09765625 C-8.32041545 0.74873466 -5.35229956 -0.02831905 0 0 Z " fill="#DFE5FC" transform="translate(119.54296875,158.90234375)"/>
<path d="M0 0 C2.31 0 4.62 0 7 0 C6.67 1.32 6.34 2.64 6 4 C4.35 3.67 2.7 3.34 1 3 C1 9.6 1 16.2 1 23 C0.67 23 0.34 23 0 23 C0 15.41 0 7.82 0 0 Z " fill="#A8BFFA" transform="translate(158,83)"/>
<path d="M0 0 C2.97 0.33 5.94 0.66 9 1 C9.33 2.98 9.66 4.96 10 7 C9.01 7.33 8.02 7.66 7 8 C1.29824561 3.89473684 1.29824561 3.89473684 0 0 Z " fill="#94AFE9" transform="translate(107,318)"/>
<path d="M0 0 C2.3125 0.1875 2.3125 0.1875 5 1 C6.875 3.4375 6.875 3.4375 8 6 C7.67 6.66 7.34 7.32 7 8 C4.9375 8.625 4.9375 8.625 3 9 C3 8.34 3 7.68 3 7 C2.34 6.67 1.68 6.34 1 6 C1.99 5.67 2.98 5.34 4 5 C3.01 4.67 2.02 4.34 1 4 C0.3125 1.9375 0.3125 1.9375 0 0 Z " fill="#050528" transform="translate(94,230)"/>
<path d="M0 0 C4.19469571 0.59924224 8.00999834 1.57499941 12 3 C12 3.66 12 4.32 12 5 C6.25 5.125 6.25 5.125 4 4 C4 3.34 4 2.68 4 2 C2.35 2.66 0.7 3.32 -1 4 C-0.67 2.68 -0.34 1.36 0 0 Z " fill="#05062A" transform="translate(117,329)"/>
<path d="M0 0 C-9.1 7 -9.1 7 -12 7 C-12 6.01 -12 5.02 -12 4 C-11.34 4 -10.68 4 -10 4 C-10 3.34 -10 2.68 -10 2 C-6.5980513 -0.09350689 -3.94727588 -0.17942163 0 0 Z " fill="#141734" transform="translate(123,257)"/>
<path d="M0 0 C0.66 0 1.32 0 2 0 C1.50269348 4.97306516 0.44697666 8.63799813 -2 13 C-2.66 12.67 -3.32 12.34 -4 12 C-2.87204037 7.89100419 -1.66489182 3.92438786 0 0 Z " fill="#D8DFF5" transform="translate(249,210)"/>
<path d="M0 0 C0.99 0.33 1.98 0.66 3 1 C3.6875 3.0625 3.6875 3.0625 4 5 C3.01 5.66 2.02 6.32 1 7 C0.41518879 9.88595946 0.41518879 9.88595946 0.3125 13.125 C0.24675781 14.22070312 0.18101563 15.31640625 0.11328125 16.4453125 C0.07589844 17.28835938 0.03851563 18.13140625 0 19 C-0.33 19 -0.66 19 -1 19 C-1.02714735 16.77090129 -1.04646254 14.54170633 -1.0625 12.3125 C-1.07990234 10.45044922 -1.07990234 10.45044922 -1.09765625 8.55078125 C-1.01478673 5.53764546 -0.70839449 2.91724661 0 0 Z " fill="#8FA5D6" transform="translate(99,282)"/>
<path d="M0 0 C1.74627478 2.61941217 2.38722388 4.03824877 3 7 C2.01 7.33 1.02 7.66 0 8 C-0.33 8.66 -0.66 9.32 -1 10 C-1.99 9.67 -2.98 9.34 -4 9 C-2.68 6.03 -1.36 3.06 0 0 Z " fill="#12144F" transform="translate(248,219)"/>
<path d="M0 0 C-2.2551922 2.2551922 -4.0047587 2.97723468 -7 4 C-7.99 4 -8.98 4 -10 4 C-9.67 2.68 -9.34 1.36 -9 0 C-3.375 -1.125 -3.375 -1.125 0 0 Z " fill="#A5B5EA" transform="translate(219,249)"/>
<path d="M0 0 C2 3 2 3 1.75 6.0625 C1 9 1 9 -1 11 C-1.33 10.67 -1.66 10.34 -2 10 C-1.29411765 2.58823529 -1.29411765 2.58823529 0 0 Z " fill="#99AFE1" transform="translate(82,183)"/>
<path d="M0 0 C0.99 0.66 1.98 1.32 3 2 C2.34 3.98 1.68 5.96 1 8 C0.34 8 -0.32 8 -1 8 C-1.33 9.65 -1.66 11.3 -2 13 C-2.66 12.67 -3.32 12.34 -4 12 C-3.34 10.35 -2.68 8.7 -2 7 C-1.34 7 -0.68 7 0 7 C-0.2784375 5.824375 -0.2784375 5.824375 -0.5625 4.625 C-1 2 -1 2 0 0 Z " fill="#080774" transform="translate(306,126)"/>
<path d="M0 0 C2.0625 0.4375 2.0625 0.4375 4 1 C3.6875 3.375 3.6875 3.375 3 6 C2.01 6.66 1.02 7.32 0 8 C-0.38063221 5.6739143 -0.71269945 3.33944736 -1 1 C-0.67 0.67 -0.34 0.34 0 0 Z " fill="#D2DDF5" transform="translate(241,223)"/>
<path d="M0 0 C1.32 0 2.64 0 4 0 C4 2.64 4 5.28 4 8 C3.01 8 2.02 8 1 8 C0.67 5.36 0.34 2.72 0 0 Z " fill="#010095" transform="translate(320,81)"/>
<path d="M0 0 C2.88437779 1.29299694 4.87219421 2.65941363 7 5 C5.02 5.99 5.02 5.99 3 7 C1.5 5.75 1.5 5.75 0 4 C0 2.68 0 1.36 0 0 Z " fill="#B1C2F0" transform="translate(221,240)"/>
<path d="M0 0 C0.99 0.33 1.98 0.66 3 1 C-2.28571429 7.42857143 -2.28571429 7.42857143 -5 10 C-4.67 7.69 -4.34 5.38 -4 3 C-2.68 2.67 -1.36 2.34 0 2 C0 1.34 0 0.68 0 0 Z " fill="#101438" transform="translate(88,170)"/>
<path d="M0 0 C2.50037734 2.17424117 3.43628586 3.73045798 4 7 C2.02 7 0.04 7 -2 7 C-1.34 4.69 -0.68 2.38 0 0 Z " fill="#90B5F3" transform="translate(160,151)"/>
<path d="M0 0 C-0.33 0.66 -0.66 1.32 -1 2 C-3.06640625 2.4140625 -3.06640625 2.4140625 -5.5625 2.625 C-6.38878906 2.69976562 -7.21507812 2.77453125 -8.06640625 2.8515625 C-9.02353516 2.92503906 -9.02353516 2.92503906 -10 3 C-10 2.34 -10 1.68 -10 1 C-3.375 -1.125 -3.375 -1.125 0 0 Z " fill="#10173E" transform="translate(155,330)"/>
<path d="M0 0 C1.67542976 0.28604898 3.34385343 0.61781233 5 1 C4.625 3.4375 4.625 3.4375 4 6 C3.01 6.495 3.01 6.495 2 7 C1.01 5.02 0.02 3.04 -1 1 C-0.67 0.67 -0.34 0.34 0 0 Z " fill="#95AFE4" transform="translate(103,310)"/>
<path d="M0 0 C2.125 0.375 2.125 0.375 4 1 C4.33 2.32 4.66 3.64 5 5 C4.01 5 3.02 5 2 5 C2 4.34 2 3.68 2 3 C0.68 2.67 -0.64 2.34 -2 2 C-1.34 1.34 -0.68 0.68 0 0 Z " fill="#CFDDF7" transform="translate(150,207)"/>
<path d="M0 0 C0.66 0.99 1.32 1.98 2 3 C1.125 6.6875 1.125 6.6875 0 10 C-0.66 10 -1.32 10 -2 10 C-2.33 10.66 -2.66 11.32 -3 12 C-3 10.68 -3 9.36 -3 8 C-2.34 8 -1.68 8 -1 8 C-0.67 5.36 -0.34 2.72 0 0 Z " fill="#03027D" transform="translate(312,114)"/>
<path d="M0 0 C0.66 0 1.32 0 2 0 C1.67 3.3 1.34 6.6 1 10 C0.34 10 -0.32 10 -1 10 C-1.125 2.25 -1.125 2.25 0 0 Z " fill="#0E0A7B" transform="translate(313,103)"/>
<path d="M0 0 C1.42944945 2.35438733 2.08661261 3.48032433 1.625 6.25 C1.41875 6.8275 1.2125 7.405 1 8 C0.01 7.34 -0.98 6.68 -2 6 C-1.125 1.125 -1.125 1.125 0 0 Z " fill="#AEC1EC" transform="translate(105,271)"/>
<path d="M0 0 C0.66 0.33 1.32 0.66 2 1 C1.34 2.65 0.68 4.3 0 6 C-2.31 5.34 -4.62 4.68 -7 4 C-4.66603411 2.44402274 -2.57343171 1.07918104 0 0 Z " fill="#10164E" transform="translate(221,248)"/>
<path d="M0 0 C0.66 0.66 1.32 1.32 2 2 C1.67 2.66 1.34 3.32 1 4 C3.64 3.67 6.28 3.34 9 3 C9.33 3.66 9.66 4.32 10 5 C6.37 5 2.74 5 -1 5 C-0.67 3.35 -0.34 1.7 0 0 Z " fill="#9AB6F2" transform="translate(197,249)"/>
<path d="M0 0 C0.99 0 1.98 0 3 0 C3.66 1.32 4.32 2.64 5 4 C3.02 4.99 3.02 4.99 1 6 C-0.0625 4.125 -0.0625 4.125 -1 2 C-0.67 1.34 -0.34 0.68 0 0 Z " fill="#ADC2F0" transform="translate(137,225)"/>
<path d="M0 0 C3 2 3 2 5 5 C4.01 5.66 3.02 6.32 2 7 C0.68 5.35 -0.64 3.7 -2 2 C-1.34 2 -0.68 2 0 2 C0 1.34 0 0.68 0 0 Z " fill="#8CA6DA" transform="translate(89,219)"/>
<path d="M0 0 C1.125 1.75 1.125 1.75 2 4 C1.125 6.25 1.125 6.25 0 8 C-0.99 7.67 -1.98 7.34 -3 7 C-1.125 2.25 -1.125 2.25 0 0 Z " fill="#A5B9E3" transform="translate(86,175)"/>
<path d="M0 0 C2.9375 0.375 2.9375 0.375 6 1 C6.33 1.66 6.66 2.32 7 3 C6.34 3 5.68 3 5 3 C5 3.66 5 4.32 5 5 C3.68 4.67 2.36 4.34 1 4 C0.67 2.68 0.34 1.36 0 0 Z " fill="#030320" transform="translate(108,256)"/>
<path d="M0 0 C1.98 0.99 1.98 0.99 4 2 C4.33 2.99 4.66 3.98 5 5 C3.5625 7.1875 3.5625 7.1875 2 9 C1.34 6.03 0.68 3.06 0 0 Z " fill="#050729" transform="translate(83,218)"/>
<path d="M0 0 C0.33 0.66 0.66 1.32 1 2 C1.66 2.33 2.32 2.66 3 3 C-1.05431692 4.15837626 -3.21812119 3.83691257 -7 2 C-4.35261084 0.5393715 -3.10551666 0 0 0 Z " fill="#88A3D7" transform="translate(107,231)"/>
<path d="M0 0 C0.66 0.66 1.32 1.32 2 2 C-1.75 5 -1.75 5 -4 5 C-3.6875 3.0625 -3.6875 3.0625 -3 1 C-2.01 0.67 -1.02 0.34 0 0 Z M2 0 C5 1 5 1 5 1 Z " fill="#020422" transform="translate(164,323)"/>
<path d="M0 0 C-0.33 2.31 -0.66 4.62 -1 7 C-3 6 -3 6 -4 3 C-1.125 0 -1.125 0 0 0 Z " fill="#080A43" transform="translate(226,246)"/>
<path d="M0 0 C0 0.66 0 1.32 0 2 C-2.64 2 -5.28 2 -8 2 C-8 1.34 -8 0.68 -8 0 C-5.13822943 -1.43088528 -3.06624227 -0.59991697 0 0 Z " fill="#91ABE6" transform="translate(116,234)"/>
<path d="M0 0 C1.75098126 2.62647188 3.38731308 5.28775382 5 8 C4.01 8.33 3.02 8.66 2 9 C0.4375 6.1875 0.4375 6.1875 -1 3 C-0.67 2.01 -0.34 1.02 0 0 Z " fill="#8FA7DC" transform="translate(83,210)"/>
<path d="M0 0 C0.66 0.99 1.32 1.98 2 3 C0.98819642 6.77126791 0.32378142 7.78414572 -3 10 C-2.01 6.7 -1.02 3.4 0 0 Z " fill="#1B1F3B" transform="translate(174,303)"/>
<path d="M0 0 C1.32 0 2.64 0 4 0 C3.67 2.64 3.34 5.28 3 8 C1.58622659 5.36095629 0.62759865 2.92879371 0 0 Z " fill="#8DA9DE" transform="translate(99,303)"/>
<path d="M0 0 C0.99 0 1.98 0 3 0 C2.34 1.98 1.68 3.96 1 6 C0.01 6 -0.98 6 -2 6 C-2 5.34 -2 4.68 -2 4 C-1.34 4 -0.68 4 0 4 C0 2.68 0 1.36 0 0 Z " fill="#040727" transform="translate(97,280)"/>
<path d="M0 0 C0.33 0.66 0.66 1.32 1 2 C-0.98 4.97 -0.98 4.97 -3 8 C-3.33 7.34 -3.66 6.68 -4 6 C-4.66 5.67 -5.32 5.34 -6 5 C-4.02 3.35 -2.04 1.7 0 0 Z " fill="#12194E" transform="translate(235,238)"/>
<path d="M0 0 C2.475 0.99 2.475 0.99 5 2 C4 4 4 4 2.0625 4.75 C1.381875 4.8325 0.70125 4.915 0 5 C-0.66 4.34 -1.32 3.68 -2 3 C-1.34 3 -0.68 3 0 3 C0 2.01 0 1.02 0 0 Z " fill="#A6BAEA" transform="translate(132,229)"/>
</svg>
